<svg width="877" height="776" viewBox="0 0 877 776" fill="none" xmlns="http://www.w3.org/2000/svg">
<g filter="url(#filter0_d_11_17653)">
<g clip-path="url(#clip0_11_17653)">
<path d="M4.00001 4.00012L4.00006 1137.11L873 1137.11L873 4.00008L4.00001 4.00012Z" fill="#29CB75"/>
<path d="M43.0001 1137L834 1137L834 24L43 24L43.0001 1137ZM356.55 1130.34L356.55 1066.35L520.451 1066.35L520.451 1130.34L356.55 1130.34ZM526.151 1061.02L350.849 1061.02L350.849 1130.34L226.854 1130.34L226.854 925.063L650.146 925.063L650.146 1130.34L526.151 1130.34L526.151 1061.02ZM655.847 1130.34L655.847 919.732L547.672 919.732C535.287 903.475 518.903 890.241 499.903 881.148C480.903 872.054 459.843 867.367 438.5 867.481C417.157 867.367 396.097 872.054 377.097 881.148C358.097 890.241 341.713 903.475 329.328 919.732L221.153 919.732L221.153 1130.34L87.0396 1130.34C86.2825 1121.35 82.1692 1112.9 75.4203 1106.47C68.6714 1100.03 59.7172 1096.03 50.1262 1095.15L50.1262 583.832L303.816 583.832C305.812 650.479 365.386 706.462 438.5 706.462C511.614 706.462 571.189 650.479 573.184 583.832L826.874 583.832L826.874 1095.15C817.283 1096.03 808.329 1100.03 801.58 1106.47C794.831 1112.9 790.718 1121.35 789.961 1130.34L655.847 1130.34ZM338.164 919.732C362.251 890.407 399.306 874.145 438.5 874.145C477.694 874.145 514.75 890.407 538.836 919.732L338.164 919.732ZM428.381 583.832C429.949 586.498 433.797 590.497 438.5 590.497C443.203 590.497 447.051 586.498 448.619 583.832L566.058 583.832C564.062 647.813 507.624 699.798 438.5 699.798C369.377 699.798 312.938 647.813 310.942 583.832L428.381 583.832ZM448.619 577.168C447.9 575.192 446.538 573.476 444.723 572.26C442.908 571.045 440.732 570.392 438.5 570.392C436.268 570.392 434.092 571.045 432.277 572.26C430.463 573.476 429.1 575.192 428.381 577.168L310.942 577.168C310.942 545.528 324.382 515.184 348.303 492.811C372.225 470.439 404.67 457.87 438.5 457.87C472.331 457.87 504.775 470.439 528.697 492.811C552.619 515.184 566.058 545.528 566.058 577.168L448.619 577.168ZM573.184 577.168C573.184 543.76 558.994 511.721 533.736 488.099C508.478 464.476 474.22 451.205 438.5 451.205C402.78 451.205 368.522 464.476 343.264 488.099C318.006 511.721 303.816 543.76 303.816 577.168L50.1262 577.168L50.1262 64.5212C69.6518 62.9217 85.3292 47.9928 87.0395 30.6647L221.153 30.6647L221.153 239.935L329.328 239.935C341.792 256.12 358.19 269.301 377.172 278.393C396.153 287.484 417.174 292.225 438.5 292.225C459.826 292.225 480.847 287.484 499.828 278.393C518.81 269.301 535.209 256.12 547.672 239.935L655.847 239.935L655.847 30.6646L789.961 30.6646C791.671 47.9928 807.348 62.9217 826.874 64.5212L826.874 577.168L573.184 577.168ZM520.451 30.6646L520.451 93.3125L356.55 93.3126L356.55 30.6646L520.451 30.6646ZM350.849 98.6443L526.151 98.6443L526.151 30.6646L650.146 30.6646L650.146 234.604L226.854 234.604L226.854 30.6647L350.849 30.6646L350.849 98.6443ZM538.836 239.935C514.75 269.26 477.694 285.522 438.5 285.522C399.306 285.522 362.251 269.26 338.164 239.935L538.836 239.935ZM79.9134 30.6647C78.2031 43.994 65.8037 56.257 50.1262 57.8566L50.1262 30.6647L79.9134 30.6647ZM50.1262 1101.81C65.8037 1103.41 78.2032 1115.67 79.9134 1130.34L50.1262 1130.34L50.1262 1101.81ZM797.087 1130.34C798.797 1115.67 811.197 1103.41 826.874 1101.81L826.874 1130.34L797.087 1130.34ZM826.874 57.8565C811.197 56.257 798.797 43.994 797.087 30.6646L826.874 30.6646L826.874 57.8565ZM438.5 985.712C436.61 985.712 434.798 985.01 433.461 983.76C432.125 982.51 431.374 980.815 431.374 979.047C431.374 977.28 432.125 975.585 433.461 974.335C434.798 973.085 436.61 972.383 438.5 972.383C440.39 972.383 442.203 973.085 443.539 974.335C444.875 975.585 445.626 977.28 445.626 979.047C445.626 980.815 444.875 982.51 443.539 983.76C442.203 985.01 440.39 985.712 438.5 985.712V985.712ZM438.5 173.955C439.91 173.955 441.287 174.346 442.459 175.078C443.631 175.811 444.544 176.851 445.084 178.069C445.623 179.287 445.764 180.627 445.489 181.92C445.214 183.213 444.536 184.4 443.539 185.332C442.542 186.264 441.273 186.899 439.89 187.156C438.508 187.414 437.075 187.282 435.773 186.777C434.471 186.273 433.358 185.418 432.575 184.322C431.792 183.226 431.374 181.938 431.374 180.62C431.374 178.852 432.125 177.157 433.461 175.907C434.798 174.657 436.61 173.955 438.5 173.955Z" fill="white"/>
<g opacity="0.2">
<path d="M52 630.361L52 746.19L826 746.19L826 630.361L52 630.361Z" fill="white"/>
<path d="M52 398.702L52 514.531L826 514.531L826 398.702L52 398.702Z" fill="white"/>
<path d="M52 165.784L52 281.613L826 281.613L826 165.784L52 165.784Z" fill="white"/>
</g>
</g>
</g>
<defs>
<filter id="filter0_d_11_17653" x="0" y="3.05176e-05" width="877" height="776" filterUnits="userSpaceOnUse" color-interpolation-filters="sRGB">
<feFlood flood-opacity="0" result="BackgroundImageFix"/>
<feColorMatrix in="SourceAlpha" type="matrix" values="0 0 0 0 0 0 0 0 0 0 0 0 0 0 0 0 0 0 127 0" result="hardAlpha"/>
<feOffset/>
<feGaussianBlur stdDeviation="2"/>
<feComposite in2="hardAlpha" operator="out"/>
<feColorMatrix type="matrix" values="0 0 0 0 0 0 0 0 0 0 0 0 0 0 0 0 0 0 0.2 0"/>
<feBlend mode="normal" in2="BackgroundImageFix" result="effect1_dropShadow_11_17653"/>
<feBlend mode="normal" in="SourceGraphic" in2="effect1_dropShadow_11_17653" result="shape"/>
</filter>
<clipPath id="clip0_11_17653">
<rect x="4.00003" y="772" width="768" height="869" rx="16" transform="rotate(-90 4.00003 772)" fill="white"/>
</clipPath>
</defs>
</svg>
